/* XPM */
static char *result[] = {
/* columns rows colors chars-per-pixel */
"240 18 3 1 ",
"  c #C2C2D1",
". c #FFFFEB",
"X c None",
/* pixels */
"XX....XXXXXXXXXXXXXXXXXXXXXXXXXXXXXXXXXXXXXXXXXXXXXXXXXXXXXXXXXXXXXXXXXXXXXXXXXXXXXXXXXXXXXXXXXXXX....XXXXXXXXXXXXXXXXXXXXXXXXXXXXXXXXXXXXXXXXXXXXXXXXXXXXXXXXXXXXXXXXXXXXXXXXXXXXXXXXXXXXXXXXXXXX....XXXXXXXXXXXXXXXXXXXXXXXXXXXXXXXXXXXXXXXXXX",
"X......XXXXXXXXXXXXXXXXXXXXXXXXXXXXXXXXXXX....XXXXXXXXXXXXXXXXXXXXXXXXXXXXXXXXXXXXXXXXXXXXXXXXXXX......XXXXXXXXXXXXXXXXXXXXXXXXXXXXXXXXXXX....XXXXXXXXXXXXXXXXXXXXXXXXXXXXXXXXXXXXXXXXXXXXXXXXXXX......XXXXXXXXXXXXXXXXXXXXXXXXXXXXXXXXXXX....XX",
"........XXXXXXXXXXXXXXXXXXXXXXXXXXXXXXXXX......XXXXXXXXXXXXXXXXXXXXXXXXXXXXXXXXXXXXXXXXXXXXXXXXX........XXXXXXXXXXXXXXXXXXXXXXXXXXXXXXXXX......XXXXXXXXXXXXXXXXXXXXXXXXXXXXXXXXXXXXXXXXXXXXXXXXX........XXXXXXXXXXXXXXXXXXXXXXXXXXXXXXXXX......X",
"........XXXXXXXXXXXXXXXXXXXXXXXXXXXXXXXX........XXXXXXXXXXXXXXXXXXXXXXXXXXXXXXXXXXXXXXXXXXXXXXXX........XXXXXXXXXXXXXXXXXXXXXXXXXXXXXXXX........XXXXXXXXXXXXXXXXXXXXXXXXXXXXXXXXXXXXXXXXXXXXXXXX........XXXXXXXXXXXXXXXXXXXXXXXXXXXXXXXX........",
"........XXXXXXXXXXXXXXXXXXXXXXXXXX....XX........XXXXXXXXXXXXXXXXXXXXXXXXXXXXXXXXXX....XXXXXXXXXX........XXXXXXXXXXXXXXXXXXXXXXXXXXXXXXXX........XXXXXXXXXXXXXXXXXXXXXXXXXXXXXXXXXX....XXXXXXXXXX........XXXXXXXXXXXXXXXXXXXXXXXXXXXXXXXX........",
" ...... XXXXXXXXXXXXXXXXXXXXXXXXX......X........XXXXXXXXXX....XXXXXXXXXXXXXXXXXXX......XXXXXXXXX ...... XXXXXXXXXXXXXXXXXXXXXXXXXXXXXXXX........XXXXXXXXXX....XXXXXXXXXXXXXXXXXXX......XXXXXXXXX ...... XX....XXXXXXXXXXXXXXXXXXXXXXXXXX........",
"X .... XXXXXXXXXXXXXXXXXXXXXXXXX........ ...... XXXXXXXXX......XXXXXXXXXXXXXXXXX........XXXXXXXXX .... XXXXXXXXXXXXXXXXXXXXXXXXXXXXXXXXX ...... XXXXXXXXX......XXXXXXXXXXXXXXXXX........XXXXXXXXX .... XX......XXXXXXXXXXXXXXXXXXXXXXXXX ...... ",
"XX    XXXXXXXXXXXXXXXXXXXXXXXXXX........X .... XXXXXXXXX........XXXXXXXXXXXXXXXX........XXXXXXXXXX    XXXXXXXXXXXXXXXXXXXXXXXXXXXXXXXXXXX .... XXXXXXXXX........XXXXXXXXXXXXXXXX........XXXXXXXXXX    XX........XXXXXXXXXXXXXXXXXXXXXXXXX .... X",
"XXXXXXXXXXXXXXXXXX....XXXXXXXXXX........XX    XXXXXXXXXX........XXXXXXXXXXXXXXXX........XXXXXXXXXXXXXXXXXXXXXXXXXX....XXXXXXXXXXXXXXXXXXXX    XXXXXXXXXX........XX....XXXXXXXXXX........XXXXXXXXXXXXXXXX........XXXXXXXXXXXXXXXXXXXXXXXXXX    XX",
"XXXXXXXXXXXXXXXXX......XXXXXXXXX ...... XXXXXXXXXXXXXXXX........XXXXXXXXXXXXXXXX ...... XXXXXXXXXXXXXXXXXXXXXXXXX......XXXXXXXXXXXXXXXXXXXXXXXXXXXXXXXXX........X......XXXXXXXXX ...... XXXXXXXXXXXXXXXX........XXXXXXXXXXXXXXXXXXXXXXXXXXXXXXXX",
"XXXXXXXXXXXXXXXX........XXXXXXXXX .... XXXXXXXXXXXXXXXXX ...... XXXXXXXXXX....XXX .... XXXXXXXXXXXXXXXXXXXXXXXXX........XX....XXXXXXXXXXXXXXXXXXXXXXXXXX ...... ........XXXXXXXXX .... XXXXXXXXXXXXXXXXX ...... XXXXXXXXXX....XXXXXXXXXXXXXXXXXX",
"XXXXXXXXXXXXXXXX........XXXXXXXXXX    XXXXXXXXXXXXXXXXXXX .... XXXXXXXXXX......XXX    XXXXXXXXXXXXXXXXXXXXXXXXXX........X......XXXXXXXXXXXXXXXXXXXXXXXXXX .... X........XXXXXXXXXX    XXXXXXXXXXXXXXXXXXX .... XXXXXXXXXX......XXXXXXXXXXXXXXXXX",
"XXXXXXXXXXXXXXXX........XXXXXXXXXXXXXXXXXXXXXXXXXXXXXXXXXX    XXXXXXXXXX........XXXXXXXXXXXXXXXXXXXXXXXXXXXXXXXX................XXXXXXXXXXXXXXXXXXXXXXXXXX    XX........XXXXXXXXXXXXXXXXXXXXXXXXXXXXXXXXXX    XXXXXXXXXX........XXXXXXXXXXXXXXXX",
"XXXXXXXXXXXXXXXX ...... XXXXXXXXXXXXXXXXXXXXXXXXXXXXXXXXXXXXXXXXXXXXXXXX........XXXXXXXXXXXXXXXXXXXXXXXXXXXXXXXX ...... ........XXXXXXXXXXXXXXXXXXXXXXXXXXXXXXXX ...... XXXXXXXXXXXXXXXXXXXXXXXXXXXXXXXXXXXXXXXXXXXXXXXX........XXXXXXXXXXXXXXXX",
"XXXXXXXXXXXXXXXXX .... XXXXXXXXXXXXXXXXXXXXXXXXXXXXXXXXXXXXXXXXXXXXXXXXX........XXXXXXXXXXXXXXXXXXXXXXXXXXXXXXXXX .... X........XXXXXXXXXXXXXXXXXXXXXXXXXXXXXXXXX .... XXXXXXXXXXXXXXXXXXXXXXXXXXXXXXXXXXXXXXXXXXXXXXXXX........XXXXXXXXXXXXXXXX",
"XXXXXXXXXXXXXXXXXX    XXXXXXXXXXXXXXXXXXXXXXXXXXXXXXXXXXXXXXXXXXXXXXXXXX ...... XXXXXXXXXXXXXXXXXXXXXXXXXXXXXXXXXX    XX ...... XXXXXXXXXXXXXXXXXXXXXXXXXXXXXXXXXX    XXXXXXXXXXXXXXXXXXXXXXXXXXXXXXXXXXXXXXXXXXXXXXXXXX ...... XXXXXXXXXXXXXXXX",
"XXXXXXXXXXXXXXXXXXXXXXXXXXXXXXXXXXXXXXXXXXXXXXXXXXXXXXXXXXXXXXXXXXXXXXXXX .... XXXXXXXXXXXXXXXXXXXXXXXXXXXXXXXXXXXXXXXXXX .... XXXXXXXXXXXXXXXXXXXXXXXXXXXXXXXXXXXXXXXXXXXXXXXXXXXXXXXXXXXXXXXXXXXXXXXXXXXXXXXXXXXXXXXXXX .... XXXXXXXXXXXXXXXXX",
"XXXXXXXXXXXXXXXXXXXXXXXXXXXXXXXXXXXXXXXXXXXXXXXXXXXXXXXXXXXXXXXXXXXXXXXXXX    XXXXXXXXXXXXXXXXXXXXXXXXXXXXXXXXXXXXXXXXXXXX    XXXXXXXXXXXXXXXXXXXXXXXXXXXXXXXXXXXXXXXXXXXXXXXXXXXXXXXXXXXXXXXXXXXXXXXXXXXXXXXXXXXXXXXXXXXX    XXXXXXXXXXXXXXXXXX"
};
