/* XPM */
static char *result[] = {
/* columns rows colors chars-per-pixel */
"48 240 14 1 ",
"  c #292333",
". c #3B324A",
"X c #334652",
"o c #377172",
"O c #405162",
"+ c #9E907F",
"@ c #3D7F80",
"# c #4FA4A5",
"$ c #A2A29A",
"% c #A1B8B2",
"& c #BFBFB6",
"* c #E6D1B8",
"= c #D9D9CE",
"- c None",
/* pixels */
"------------------------------------------------",
"------------------------------------------------",
"------------------------------------------------",
"------------------------------------------------",
"------------------------------------------------",
"------------------------------------------------",
"------------------------------------------------",
"------------------------------#-----------------",
"------------------------------------------------",
"---------------------.--------------------------",
"---------------------.--------------------------",
"--------#------------.O-------------------------",
"---------------------..-------------------------",
"---------------------..O------------------------",
"---------------------...O-----------------------",
"--------------------O....-----------------------",
"--------------------.....-----------------------",
"--------------------......----------------------",
"-------------------o......o     O---------------",
"-----------------X  oo...#      O---------------",
"-------------OX       ###     .OO---------------",
"-------------.            .....O----------------",
"--------------.     ..........O-----------------",
"---------------...............----------#-------",
"----------------.........$ ooo---------###------",
"-----------------ooooo$ +$.###----------#-------",
"-----------------#####*****###------------------",
"------------------#####   ###-------------------",
"-------------------.....    --------------------",
"------------------......    --------------------",
"---------------&&&......     -------------------",
"--------------&&&.......     &&-----------------",
"-------------=&&.........    X&&&---------------",
"------------==&&.........    X&&&&&-------------",
"------------==&..........     X&==&&------------",
"-----------==&&..........     X&===&&-----------",
"-----------==&&..........      &&===&-----------",
"-----------==&&.........       &&===&-----------",
"-----------=&&&......###oo     &&&==&&----------",
"------------&&--....#==-ooo   --&&===&----------",
"--------------------.====  ------&==&&----------",
"--------------------.===== -------=&&-----------",
"----------------------=====-------=&------------",
"----------------=-----=====-------&-------------",
"-------------=--==---=======-----=--------------",
"---------------===--========---=----------------",
"-------------------========---------------------",
"------------------------------------------------",
"------------------------------------------------",
"------------------------------------------------",
"------------------------------------------------",
"-------------------#----------------------------",
"------------------------------------------------",
"------------------------------------------------",
"------------------------------#-----------------",
"-----------------------------##o----------------",
"------------------------------o-----------------",
"----------------------O-------------------------",
"--------#-------------O-------------------------",
"-------##o------------.O------------------------",
"--------o------------..O------------------------",
"---------------------...O-----------------------",
"---------------------...O-----------------------",
"---------------------O...-----------------------",
"--------------------O....-----------------------",
"--------------------.....O----------------------",
"-------------------o......o   ------------------",
"------------------X oo...#     XO---------------",
"---------------XXX    ###     .OO---------------",
"-------------OO            ...OOO---------------",
"-------------...        ......OO-------##-------",
"--------------...............O@-------###o------",
"---------------........... ooo@-------##oo------",
"----------------@oo..o$ +$ ####--------oo-------",
"----------------##oooo*****###------------------",
"-----#-----------######   ####------------------",
"-------------------.....    --------------------",
"-----------------.......    XX------------------",
"---------------O........     XX&&---------------",
"--------------O..........     XXX&&-------------",
"-------------O...........      XX%&=------------",
"-------------............       XX&=------------",
"-------------............        X=-------------",
"-------------............         --------------",
"------------=.......####oo       ---------------",
"------------==....######oooo ==  ---------------",
"-----------===&..&######ooo=======--------------",
"-----------===&&&---###-oo=========-------------",
"-----------===&&&---..---============-----------",
"------------===&----..---============-----------",
"------------====------------=========-----------",
"-------------====------------=======------------",
"---------------==----------=======--------------",
"-------------------------=====------------------",
"------------------------------------------------",
"------------------------------------------------",
"------------------------------------------------",
"------------------------------------------------",
"-------------------#----------------------------",
"------------------##o---------------------------",
"-------------------o----------------------------",
"------------------------------##----------------",
"-----------------------------###o---------------",
"-----------------------------##oo---------------",
"------------------------------oo----------------",
"------------------------------------------------",
"-------##--------------O------------------------",
"------###o-------------OO-----------------------",
"------##oo------------OOO-----------------------",
"-------oo-------------OOO-----------------------",
"---------------------OO.O-----------------------",
"---------------------...OX----------------------",
"---------------------....X----------------------",
"--------------------.....X----------------------",
"-------------------@..... @---------------------",
"------------------XXo....# XXXX-----------------",
"----------------XXXX ####   XXOO----------------",
"--------------XXXXX          OOOO-----###-------",
"-------------OOXX         ...OOOO----####o------",
"-------------OO.............OOOO-----####o------",
"---------------O............@@@@-----###oo------",
"---------------@oo....$ +$ o@###------ooo-------",
"-----#---------##ooooo*****####-----------------",
"----##o--------O..#####.  ###XXX----------------",
"-----o--------OO........      XXXX--------------",
"-------------OOO........      XXXXX-------------",
"-------------OO..........      XXXX-------------",
"-------------OO..........        XX-------------",
"-------------O...........          -------------",
"--------------...........         &-------------",
"----------------.........      &&&&&------------",
"------------------##.....  oo-&====&&-----------",
"------------------######ooooo-======&-----------",
"------------------######ooooo-======&-----------",
"---------------==-######ooooo=======------------",
"-----------=----===-###-oooo-=======------------",
"-----------===-=====..---  --==--==-------------",
"------------========..---  -----==--------------",
"------------========------------=---------------",
"-------------========---------------------------",
"--------------=======---------------------------",
"---------------======---------------------------",
"----------------====----------------------------",
"------------------------------------------------",
"------------------------------------------------",
"------------------##----------------------------",
"-----------------###o---------------------------",
"-----------------##oo---------------------------",
"------------------oo----------###---------------",
"-----------------------------####o--------------",
"-----------------------------####o--------------",
"-----------------------------###oo--------------",
"------------------------------ooo---------------",
"------------------------------------------------",
"-------###--------------------------------------",
"------####o-------------------------------------",
"------####o---------------O---------------------",
"------###oo-------------OOO---------------------",
"-------ooo-------------OOOO---------------------",
"----------------------OOO. ---------------------",
"----------------------OO. ----------------------",
"---------------------OO.. ----------------------",
"-------------------@OO... @XXX------------------",
"-----------------XXXoo...o  XXXO----------------",
"--------------XXXXXX ####     ..O---------------",
"-------------OXXXX           ...O-----##--------",
"-------------OOOX         .....O-----#----------",
"--------------OOO..............------#---o------",
"----------------OO..........oo@----------o------",
"----------------@oO...$ +$ oo##---------o-------",
"-----##---------#ooooo*****###------------------",
"----###o---------######   ##--------------------",
"----##oo----------OO....    --------------------",
"-----oo--------OOOOO....       -----------------",
"--------------OOOOO.....       XX---------------",
"-------------OOOO........        X--------------",
"-------------OOO.........         --------------",
"-------------OO..........         --------------",
"-------------&...........        &--------------",
"------------&&&..........       &---------------",
"------------&&&&&...####oo    ------------------",
"------------=&&&--######oooo--------------------",
"-------------==---######====o-------------------",
"-------------==-----#=========------------------",
"--------------=-----.==========-----------------",
"--------------------..===========---------------",
"----------------=------==========---------------",
"---------------===-----==========---------------",
"----------------===--===========----------------",
"--------------------=========-------------------",
"------------------------------------------------",
"------------------------------------------------",
"------------------------------------------------",
"-------------------#----------------------------",
"------------------------------------------------",
"-----------------#--o---------------------------",
"------------------#-----------##----------------",
"-----------------------------#------------------",
"------------------------------------------------",
"---------------------------------o--------------",
"--------------------------------o---------------",
"------------------------------------------------",
"--------##--------------------------------------",
"----------#------------OO-----------------------",
"------#---o-----------.. -----------------------",
"------#---------------..------------------------",
"-------oo------------O..------------------------",
"---------------------...O-----------------------",
"---------------------....-----------------------",
"--------------------......----------------------",
"-------------------@......o  XX-----------------",
"-----------------X  oo...#      O---------------",
"---------------X      ###     ...---------------",
"--------------X            .....O---------------",
"--------------..        .......O----------------",
"--------------.................------#----------",
"---------------............ooo------------------",
"-----------------oo...$ +$ o##----------o-------",
"-----#-----------##ooo+****###------------------",
"----#-------------#####   ###-------------------",
"-------o-----------&....    --------------------",
"-----oo-----------&.....    --------------------",
"-----------------&......     -------------------",
"-----------------.......     -------------------",
"-------------O--.........     -- X--------------",
"------------O............         --------------",
"------------.............         --------------",
"------------.............         &-------------",
"------------&..........#o        &&=------------",
"-----------&&&.....#####ooo      &&=------------",
"-----------&&&&..-######ooooo   &&==------------",
"-----------=&&&=----###-oooo---&&===------------",
"----------&=&&&=----..---  ----=====------------",
"----------&&=&&&==--..---  -----===-------------",
"-----------&==&&&==-------------===-------------",
"-----------&========------------==--------------",
"------------&=======-----------=----------------",
"-------------=======----------------------------",
"---------------====-----------------------------",
"------------------------------------------------"
};
