/* XPM */
static char *result[] = {
/* columns rows colors chars-per-pixel */
"32 288 9 1 ",
"  c #292333",
". c #3B324A",
"X c #377172",
"o c #9E907F",
"O c #4FA4A5",
"+ c #A2A29A",
"@ c #E6D1B8",
"# c #ECECE0",
"$ c None",
/* pixels */
"$$$$$$$$$$$$$$$$$$$$$$$$$$$$$$$$",
"$$$$$$$$$$$$$$$$$$$$$$$$$$$$$$$$",
"$$$$$$$$$$$$$$$$$$$$$$$$$$$$$$$$",
"$$$$$$$$$$$$$$$$$$$$$$$$$$$$$$$$",
"$$$$$$$$$$$$$$.$$$$$$$$$$$$$$$$$",
"$$$$$$$$$$$$$$.$$$$$$$$$$$$$$$$$",
"$$$$$$$$$$$$$$..$$$$$$$$$$$$$$$$",
"$$$$$$$$$$$$$$..$$$$$$$$$$$$$$$$",
"$$$$$$$$$$$$$...$$$$$$$$$$$$$$$$",
"$$$$$$$$$$$$$....$$$$$$$$$$$$$$$",
"$$$$$$$$$$$$$....$$$$$$$$$$$$$$$",
"$$$$$$$$$$$$.....$$$$$$$$$$$$$$$",
"$$$$$$$$$$$$......$$$$$$$$$$$$$$",
"$$$$$$$$$$$X......X   $$$$$$$$$$",
"$$$$$$$$$   XX...O      $$$$$$$$",
"$$$$$$$       OOO     ...$$$$$$$",
"$$$$$$            .......$$$$$$$",
"$$$$$..    .............$$$$$$$$",
"$$$$$$................$$$$$$$$$$",
"$$$$$$$..........XXXX$$$$$$$$$$$",
"$$$$$$$$$$XXXX+ o+.OO$$$$$$$$$$$",
"$$$$$$$$$$OOOO#.@#.OO$$$$$$$$$$$",
"$$$$$$$$$$OOOO@@@@@OO$$$$$$$$$$$",
"$$$$$$$$$$$OOOO   OO$$$$$$$$$$$$",
"$$$$$$$$$$$.....    $$$$$$$$$$$$",
"$$$$$$$$$$......    $$$$$$$$$$$$",
"$$$$$$$$$$......     $$$$$$$$$$$",
"$$$$$$$$$.......     $$$$$$$$$$$",
"$$$$$$$$$........    $$$$$$$$$$$",
"$$$$$$$$$........    $$$$$$$$$$$",
"$$$$$$$$$........    $$$$$$$$$$$",
"$$$$$$$$$........    $$$$$$$$$$$",
"$$$$$$$$$........    $$$$$$$$$$$",
"$$$$$$$$$.......     $$$$$$$$$$$",
"$$$$$$$$$.......     $$$$$$$$$$$",
"$$$$$$$$$$......     $$$$$$$$$$$",
"$$$$$$$$$$$....     $$$$$$$$$$$$",
"$$$$$$$$$$$OOOO$XXXX$$$$$$$$$$$$",
"$$$$$$$$$$$$..$$$  $$$$$$$$$$$$$",
"$$$$$$$$$$$$..$$$  $$$$$$$$$$$$$",
"$$$$$$$$$$$$$$$$$$$$$$$$$$$$$$$$",
"$$$$$$$$$$$$$$$$$$$$$$$$$$$$$$$$",
"$$$$$$$$$$$$$$$$$$$$$$$$$$$$$$$$",
"$$$$$$$$$$$$$$$$$$$$$$$$$$$$$$$$",
"$$$$$$$$$$$$$$$$$$$$$$$$$$$$$$$$",
"$$$$$$$$$$$$$$$$$$$$$$$$$$$$$$$$",
"$$$$$$$$$$$$$$$$$$$$$$$$$$$$$$$$",
"$$$$$$$$$$$$$$$$$$$$$$$$$$$$$$$$",
"$$$$$$$$$$$$$$$$$$$$$$$$$$$$$$$$",
"$$$$$$$$$$$$$$$$$$$$$$$$$$$$$$$$",
"$$$$$$$$$$$$$$$$$$$$$$$$$$$$$$$$",
"$$$$$$$$$$$$$$$$$$$$$$$$$$$$$$$$",
"$$$$$$$$$$$$$$$$$$$$$$$$$$$$$$$$",
"$$$$$$$$$$$$$.$$$$$$$$$$$$$$$$$$",
"$$$$$$$$$$$$$..$$$$$$$$$$$$$$$$$",
"$$$$$$$$$$$$$..$$$$$$$$$$$$$$$$$",
"$$$$$$$$$$$$$...$$$$$$$$$$$$$$$$",
"$$$$$$$$$$$$$....$$$$$$$$$$$$$$$",
"$$$$$$$$$$$$$....$$$$$$$$$$$$$$$",
"$$$$$$$$$$$$.....$$$$$$$$$$$$$$$",
"$$$$$$$$$$$$......$$$$$$$$$$$$$$",
"$$$$$$$$$$$X......X   $$$$$$$$$$",
"$$$$$$$$$   XX...O      $$$$$$$$",
"$$$$$$$       OOO     ...$$$$$$$",
"$$$$$$            .......$$$$$$$",
"$$$$$..    .............$$$$$$$$",
"$$$$$$................$$$$$$$$$$",
"$$$$$$$..........XXXX$$$$$$$$$$$",
"$$$$$$$$$$XXXXXXXXXOO$$$$$$$$$$$",
"$$$$$$$$$$OOOO#.@#.OO$$$$$$$$$$$",
"$$$$$$$$$$OOOO#.@#.OO$$$$$$$$$$$",
"$$$$$$$$$$$OOO@@@@@O$$$$$$$$$$$$",
"$$$$$$$$$$$.....    $$$$$$$$$$$$",
"$$$$$$$$$$......    $$$$$$$$$$$$",
"$$$$$$$$$$......     $$$$$$$$$$$",
"$$$$$$$$$.......     $$$$$$$$$$$",
"$$$$$$$$.........     $$$$$$$$$$",
"$$$$$$$$.........     $$$$$$$$$$",
"$$$$$$$$.........     $$$$$$$$$$",
"$$$$$$$$.........     $$$$$$$$$$",
"$$$$$$$$.........     $$$$$$$$$$",
"$$$$$$$$.........     $$$$$$$$$$",
"$$$$$$$$........      $$$$$$$$$$",
"$$$$$$$$........      $$$$$$$$$$",
"$$$$$$$$$.......      $$$$$$$$$$",
"$$$$$$$$$$.....      $$$$$$$$$$$",
"$$$$$$$$$$$$..$$$  $$$$$$$$$$$$$",
"$$$$$$$$$$$$..$$$  $$$$$$$$$$$$$",
"$$$$$$$$$$$$$$$$$$$$$$$$$$$$$$$$",
"$$$$$$$$$$$$$$$$$$$$$$$$$$$$$$$$",
"$$$$$$$$$$$$$$$$$$$$$$$$$$$$$$$$",
"$$$$$$$$$$$$$$$$$$$$$$$$$$$$$$$$",
"$$$$$$$$$$$$$$$$$$$$$$$$$$$$$$$$",
"$$$$$$$$$$$$$$$$$$$$$$$$$$$$$$$$",
"$$$$$$$$$$$$$$$$$$$$$$$$$$$$$$$$",
"$$$$$$$$$$$$$$$$$$$$$$$$$$$$$$$$",
"$$$$$$$$$$$$$$$$$$$$$$$$$$$$$$$$",
"$$$$$$$$$$$$$$$$$$$$$$$$$$$$$$$$",
"$$$$$$$$$$$$$$$$$$$$$$$$$$$$$$$$",
"$$$$$$$$$$$$$$$$$$$$$$$$$$$$$$$$",
"$$$$$$$$$$$$$$$$$$$$$$$$$$$$$$$$",
"$$$$$$$$$$$$$$$$$$$$$$$$$$$$$$$$",
"$$$$$$$$$$$$$$$$$$$$$$$$$$$$$$$$",
"$$$$$$$$$$$$$.$$$$$$$$$$$$$$$$$$",
"$$$$$$$$$$$$$.$$$$$$$$$$$$$$$$$$",
"$$$$$$$$$$$$$..$$$$$$$$$$$$$$$$$",
"$$$$$$$$$$$$$..$$$$$$$$$$$$$$$$$",
"$$$$$$$$$$$$$...$$$$$$$$$$$$$$$$",
"$$$$$$$$$$$$$....$$$$$$$$$$$$$$$",
"$$$$$$$$$$$$.....$$$$$$$$$$$$$$$",
"$$$$$$$$$$$$.....$$$$$$$$$$$$$$$",
"$$$$$$$$$$$$......$$$$$$$$$$$$$$",
"$$$$$$$$$$$X......X     .$$$$$$$",
"$$$$$$$$$   XX...O      .$$$$$$$",
"$$$$$.        OOO     ...$$$$$$$",
"$$$$$.            ......$$$$$$$$",
"$$$$$$.    ............$$$$$$$$$",
"$$$$$$$...............$$$$$$$$$$",
"$$$$$$$$.........+ XXX$$$$$$$$$$",
"$$$$$$$$$XXXXX+ o+.OOO$$$$$$$$$$",
"$$$$$$$$$OOOOO@@@@@OOO$$$$$$$$$$",
"$$$$$$$$$$OOOOO   OOO$$$$$$$$$$$",
"$$$$$$$$$$$.....    $$$$$$$$$$$$",
"$$$$$$$$$$......    $$$$$$$$$$$$",
"$$$$$$$$$$......     $$$$$$$$$$$",
"$$$$$$$$$.......     $$$$$$$$$$$",
"$$$$$$$$.........     $$$$$$$$$$",
"$$$$$$$$.........     $$$$$$$$$$",
"$$$$$$$$.........     $$$$$$$$$$",
"$$$$$$$$.........     $$$$$$$$$$",
"$$$$$$$$.........     $$$$$$$$$$",
"$$$$$$$$........      $$$$$$$$$$",
"$$$$$$$$........      $$$$$$$$$$",
"$$$$$$$$$.......     $$$$$$$$$$$",
"$$$$$$$$$$$....     $$$$$$$$$$$$",
"$$$$$$$$$$$$..$$$  $$$$$$$$$$$$$",
"$$$$$$$$$$$$$$$$$$$$$$$$$$$$$$$$",
"$$$$$$$$$$$$$$$$$$$$$$$$$$$$$$$$",
"$$$$$$$$$$$$$$$$$$$$$$$$$$$$$$$$",
"$$$$$$$$$$$$$$$$$$$$$$$$$$$$$$$$",
"$$$$$$$$$$$$$$$$$$$$$$$$$$$$$$$$",
"$$$$$$$$$$$$$$$$$$$$$$$$$$$$$$$$",
"$$$$$$$$$$$$$$$$$$$$$$$$$$$$$$$$",
"$$$$$$$$$$$$$$$$$$$$$$$$$$$$$$$$",
"$$$$$$$$$$$$$$$$$$$$$$$$$$$$$$$$",
"$$$$$$$$$$$$$$$$$$$$$$$$$$$$$$$$",
"$$$$$$$$$$$$$$$$$$$$$$$$$$$$$$$$",
"$$$$$$$$$$$$$$$$$$$$$$$$$$$$$$$$",
"$$$$$$$$$$$$$$$$$$$$$$$$$$$$$$$$",
"$$$$$$$$$$$$$$$$$$$$$$$$$$$$$$$$",
"$$$$$$$$$$$...$$$$$$$$$$$$$$$$$$",
"$$$$$$$$$$$.....$$$$$$$$$$$$$$$$",
"$$$$$$$$$$$$....$$$$$$$$$$$$$$$$",
"$$$$$$$$$$$$$....$$$$$$$$$$$$$$$",
"$$$$$$$$$$$$$....$$$$$$$$$$$$$$$",
"$$$$$$$$$$$$.....$$$$$$$$$$$$$$$",
"$$$$$$$$$$$$......$$$$$$$$$$$$$$",
"$$$$$$$$$$$X......X $$$$$$$$$$$$",
"$$$$$$$$$$  XX...O     $$$$$$$$$",
"$$$$$$$$      OOO      .$$$$$$$$",
"$$$$$$$             .....$$$$$$$",
"$$$$$$.       ...........$$$$$$$",
"$$$$$$.................$$$$$$$$$",
"$$$$$$$..........XXXX$$$$$$$$$$$",
"$$$$$$$$$$XXXXXXXXXOO$$$$$$$$$$$",
"$$$$$$$$$$OOOO#.@#.OO$$$$$$$$$$$",
"$$$$$$$$$$OOOO#.@#.OO$$$$$$$$$$$",
"$$$$$$$$$$$OOO@@@@@O$$$$$$$$$$$$",
"$$$$$$$$$$$.....    $$$$$$$$$$$$",
"$$$$$$$$$$......    $$$$$$$$$$$$",
"$$$$$$$$$$......     $$$$$$$$$$$",
"$$$$$$$$$.......     $$$$$$$$$$$",
"$$$$$$$$.........     $$$$$$$$$$",
"$$$$$$$$.........     $$$$$$$$$$",
"$$$$$$$$.........     $$$$$$$$$$",
"$$$$$$$$.........     $$$$$$$$$$",
"$$$$$$$$.........     $$$$$$$$$$",
"$$$$$$$$.........     $$$$$$$$$$",
"$$$$$$$$........      $$$$$$$$$$",
"$$$$$$$$........      $$$$$$$$$$",
"$$$$$$$$$.......      $$$$$$$$$$",
"$$$$$$$$$$.....      $$$$$$$$$$$",
"$$$$$$$$$$$$..$$$  $$$$$$$$$$$$$",
"$$$$$$$$$$$$..$$$  $$$$$$$$$$$$$",
"$$$$$$$$$$$$$$$$$$$$$$$$$$$$$$$$",
"$$$$$$$$$$$$$$$$$$$$$$$$$$$$$$$$",
"$$$$$$$$$$$$$$$$$$$$$$$$$$$$$$$$",
"$$$$$$$$$$$$$$$$$$$$$$$$$$$$$$$$",
"$$$$$$$$$$$$$$$$$$$$$$$$$$$$$$$$",
"$$$$$$$$$$$$$$$$$$$$$$$$$$$$$$$$",
"$$$$$$$$$$$$$$$$$$$$$$$$$$$$$$$$",
"$$$$$$$$$$$$$$$$$$$$$$$$$$$$$$$$",
"$$$$$$$$$$$$$$$$$$$$$$$$$$$$$$$$",
"$$$$$$$$$$$$$$$$$$$$$$$$$$$$$$$$",
"$$$$$$$$$$$$$$$$$$$$$$$$$$$$$$$$",
"$$$$$$$$$$$$.$$$$$$$$$$$$$$$$$$$",
"$$$$$$$$$$$$$..$$$$$$$$$$$$$$$$$",
"$$$$$$$$$$$$$..$$$$$$$$$$$$$$$$$",
"$$$$$$$$$$$$$...$$$$$$$$$$$$$$$$",
"$$$$$$$$$$$$$....$$$$$$$$$$$$$$$",
"$$$$$$$$$$$$$....$$$$$$$$$$$$$$$",
"$$$$$$$$$$$$.....$$$$$$$$$$$$$$$",
"$$$$$$$$$$$$......$$$$$$$$$$$$$$",
"$$$$$$$$$$$X......X $$$$$$$$$$$$",
"$$$$$$$$$$  XX...O     $$$$$$$$$",
"$$$$$$$$      OOO     ..$$$$$$$$",
"$$$$$$$           .......$$$$$$$",
"$$$$$$.    ..............$$$$$$$",
"$$$$$$.................$$$$$$$$$",
"$$$$$$...........XXXX$$$$$$$$$$$",
"$$$$$$$$..XXXX+ o+.OO$$$$$$$$$$$",
"$$$$$$$$$$OOOO#.@#.O$$$$$$$$$$$$",
"$$$$$$$$$$$OOO@@@@@O$$$$$$$$$$$$",
"$$$$$$$$$$$OOOO   OO$$$$$$$$$$$$",
"$$$$$$$$$$$.....    $$$$$$$$$$$$",
"$$$$$$$$$$......    $$$$$$$$$$$$",
"$$$$$$$$$$......     $$$$$$$$$$$",
"$$$$$$$$$.......     $$$$$$$$$$$",
"$$$$$$$$$........    $$$$$$$$$$$",
"$$$$$$$$$........    $$$$$$$$$$$",
"$$$$$$$$$........    $$$$$$$$$$$",
"$$$$$$$$$........    $$$$$$$$$$$",
"$$$$$$$$$$......     $$$$$$$$$$$",
"$$$$$$$$$$......     $$$$$$$$$$$",
"$$$$$$$$$$......    $$$$$$$$$$$$",
"$$$$$$$$$$......    $$$$$$$$$$$$",
"$$$$$$$$$$$....     $$$$$$$$$$$$",
"$$$$$$$$$$$....     $$$$$$$$$$$$",
"$$$$$$$$$$$OOOO$XXXX$$$$$$$$$$$$",
"$$$$$$$$$$$$OO$$$XX$$$$$$$$$$$$$",
"$$$$$$$$$$$$..$$$  $$$$$$$$$$$$$",
"$$$$$$$$$$$$..$$$  $$$$$$$$$$$$$",
"$$$$$$$$$$$$$$$$$$$$$$$$$$$$$$$$",
"$$$$$$$$$$$$$$$$$$$$$$$$$$$$$$$$",
"$$$$$$$$$$$$$$$$$$$$$$$$$$$$$$$$",
"$$$$$$$$$$$$$$$$$$$$$$$$$$$$$$$$",
"$$$$$$$$$$$$$$$$$$$$$$$$$$$$$$$$",
"$$$$$$$$$$$$$$$$$$$$$$$$$$$$$$$$",
"$$$$$$$$$$$$$$$$$$$$$$$$$$$$$$$$",
"$$$$$$$$$$$$$$$$$$$$$$$$$$$$$$$$",
"$$$$$$$$$$$$$$$$$$$$$$$$$$$$$$$$",
"$$$$$$$$$$$$$$$$$$$$$$$$$$$$$$$$",
"$$$$$$$$$$$$$$$$$$$$$$$$$$$$$$$$",
"$$$$$$$$$$$$$$$$$$$$$$$$$$$$$$$$",
"$$$$$$$$$$$$$.$$$$$$$$$$$$$$$$$$",
"$$$$$$$$$$$$$..$$$$$$$$$$$$$$$$$",
"$$$$$$$$$$$$$...$$$$$$$$$$$$$$$$",
"$$$$$$$$$$$$$$..$$$$$$$$$$$$$$$$",
"$$$$$$$$$$$$$$...$$$$$$$$$$$$$$$",
"$$$$$$$$$$$$$$...$$$$$$$$$$$$$$$",
"$$$$$$$$$$$$$....$$$$$$$$$$$$$$$",
"$$$$$$$$$$$$......$$$$$$$$$$$$$$",
"$$$$$$$$$$$X......X  $$$$$$$$$$$",
"$$$$$$$$$$  XX...O      .$$$$$$$",
"$$$$$$$$      OOO     ....$$$$$$",
"$$$$$$            ........$$$$$$",
"$$$$$..      ............$$$$$$$",
"$$$$$$...  .............$$$$$$$$",
"$$$$$$$..........XXXX$$$$$$$$$$$",
"$$$$$$$$$$XXXX+ o+.OO$$$$$$$$$$$",
"$$$$$$$$$$OOOO#.@#.OO$$$$$$$$$$$",
"$$$$$$$$$$$OOO@@@@@O$$$$$$$$$$$$",
"$$$$$$$$$$$OOOO   OO$$$$$$$$$$$$",
"$$$$$$$$$$$$....   $$$$$$$$$$$$$",
"$$$$$$$$$$$.....    $$$$$$$$$$$$",
"$$$$$$$$$$......    $$$$$$$$$$$$",
"$$$$$$$$$$......     $$$$$$$$$$$",
"$$$$$$$$$........    $$$$$$$$$$$",
"$$$$$$$$$........    $$$$$$$$$$$",
"$$$$$$$$$........    $$$$$$$$$$$",
"$$$$$$$$$........    $$$$$$$$$$$",
"$$$$$$$$$.......     $$$$$$$$$$$",
"$$$$$$$$$$......     $$$$$$$$$$$",
"$$$$$$$$$$......    $$$$$$$$$$$$",
"$$$$$$$$$$......    $$$$$$$$$$$$",
"$$$$$$$$$$$....     $$$$$$$$$$$$",
"$$$$$$$$$$$....     $$$$$$$$$$$$",
"$$$$$$$$$$$$OO$$$XX$$$$$$$$$$$$$",
"$$$$$$$$$$$$..$$$  $$$$$$$$$$$$$",
"$$$$$$$$$$$$..$$$  $$$$$$$$$$$$$",
"$$$$$$$$$$$$$$$$$$$$$$$$$$$$$$$$",
"$$$$$$$$$$$$$$$$$$$$$$$$$$$$$$$$",
"$$$$$$$$$$$$$$$$$$$$$$$$$$$$$$$$",
"$$$$$$$$$$$$$$$$$$$$$$$$$$$$$$$$",
"$$$$$$$$$$$$$$$$$$$$$$$$$$$$$$$$",
"$$$$$$$$$$$$$$$$$$$$$$$$$$$$$$$$",
"$$$$$$$$$$$$$$$$$$$$$$$$$$$$$$$$",
"$$$$$$$$$$$$$$$$$$$$$$$$$$$$$$$$"
};
