/* XPM */
static char *_edbaee41c504d95a8f7df535c2583282PhUws2JHM9VlWq7[] = {
/* columns rows colors chars-per-pixel */
"64 288 9 1 ",
"  c None",
". c #292333",
"X c #3B324A",
"o c #377172",
"O c #9E907F",
"+ c #4FA4A5",
"@ c #A2A29A",
"# c #E6D1B8",
"$ c #ECECE0",
/* pixels */
"                                                                ",
"                                                                ",
"                                                                ",
"                                                                ",
"                              X                                 ",
"                              X                                 ",
"                              XX                                ",
"                              XX                                ",
"                             XXX                                ",
"                             XXXX                               ",
"                             XXXX                               ",
"                            XXXXX                               ",
"                            XXXXXX                              ",
"                           oXXXXXXo...                          ",
"                         ...ooXXX+......                        ",
"                       .......+++.....XXX                       ",
"                      ............XXXXXXX                       ",
"                     XX....XXXXXXXXXXXXX                        ",
"                      XXXXXXXXXXXXXXXX                          ",
"                       XXXXXXXXXXoooo                           ",
"                          oooo@.O@X++                           ",
"                          ++++$X#$X++                           ",
"                          ++++#####++                           ",
"                           ++++...++                            ",
"                           XXXXX....                            ",
"                          XXXXXX....                            ",
"                          XXXXXX.....                           ",
"                         XXXXXXX.....                           ",
"                         XXXXXXXX....                           ",
"                         XXXXXXXX....                           ",
"                         XXXXXXXX....                           ",
"                         XXXXXXXX....                           ",
"                         XXXXXXXX....                           ",
"                         XXXXXXX.....                           ",
"                         XXXXXXX.....                           ",
"                          XXXXXX.....                           ",
"                           XXXX.....                            ",
"                           ++++ oooo                            ",
"                            XX   ..                             ",
"                            XX   ..                             ",
"                                                                ",
"                                                                ",
"                                                                ",
"                                                                ",
"                                                                ",
"                                                                ",
"                                                                ",
"                                                                ",
"                                                                ",
"                                                                ",
"                                                                ",
"                                                                ",
"                                                                ",
"                             X                                  ",
"                             XX                                 ",
"                             XX                                 ",
"                             XXX                                ",
"                             XXXX                               ",
"                             XXXX                               ",
"                            XXXXX                               ",
"                            XXXXXX                              ",
"                           oXXXXXXo...                          ",
"                         ...ooXXX+......                        ",
"                       .......+++.....XXX                       ",
"                      ............XXXXXXX                       ",
"                     XX....XXXXXXXXXXXXX                        ",
"                      XXXXXXXXXXXXXXXX                          ",
"                       XXXXXXXXXXoooo                           ",
"                          ooooooooo++                           ",
"                          ++++$X#$X++                           ",
"                          ++++$X#$X++                           ",
"                           +++#####+                            ",
"                           XXXXX....                            ",
"                          XXXXXX....                            ",
"                          XXXXXX.....                           ",
"                         XXXXXXX.....                           ",
"                        XXXXXXXXX.....                          ",
"                        XXXXXXXXX.....                          ",
"                        XXXXXXXXX.....                          ",
"                        XXXXXXXXX.....                          ",
"                        XXXXXXXXX.....                          ",
"                        XXXXXXXXX.....                          ",
"                        XXXXXXXX......                          ",
"                        XXXXXXXX......                          ",
"                         XXXXXXX......                          ",
"                          XXXXX......                           ",
"                            XX   ..                             ",
"                            XX   ..                             ",
"                                                                ",
"                                                                ",
"                                                                ",
"                                                                ",
"                                                                ",
"                                                                ",
"                                                                ",
"                                                                ",
"                                                                ",
"                                                                ",
"                                                                ",
"                                                                ",
"                                                                ",
"                                                                ",
"                                                                ",
"                             X                                  ",
"                             X                                  ",
"                             XX                                 ",
"                             XX                                 ",
"                             XXX                                ",
"                             XXXX                               ",
"                            XXXXX                               ",
"                            XXXXX                               ",
"                            XXXXXX                              ",
"                           oXXXXXXo.....X                       ",
"                         ...ooXXX+......X                       ",
"                     X........+++.....XXX                       ",
"                     X............XXXXXX                        ",
"                      X....XXXXXXXXXXXX                         ",
"                       XXXXXXXXXXXXXXX                          ",
"                        XXXXXXXXX@.ooo                          ",
"                         ooooo@.O@X+++                          ",
"                         +++++#####+++                          ",
"                          +++++...+++                           ",
"                           XXXXX....                            ",
"                          XXXXXX....                            ",
"                          XXXXXX.....                           ",
"                         XXXXXXX.....                           ",
"                        XXXXXXXXX.....                          ",
"                        XXXXXXXXX.....                          ",
"                        XXXXXXXXX.....                          ",
"                        XXXXXXXXX.....                          ",
"                        XXXXXXXXX.....                          ",
"                        XXXXXXXX......                          ",
"                        XXXXXXXX......                          ",
"                         XXXXXXX.....                           ",
"                           XXXX.....                            ",
"                            XX   ..                             ",
"                                                                ",
"                                                                ",
"                                                                ",
"                                                                ",
"                                                                ",
"                                                                ",
"                                                                ",
"                                                                ",
"                                                                ",
"                                                                ",
"                                                                ",
"                                                                ",
"                                                                ",
"                                                                ",
"                           XXX                                  ",
"                           XXXXX                                ",
"                            XXXX                                ",
"                             XXXX                               ",
"                             XXXX                               ",
"                            XXXXX                               ",
"                            XXXXXX                              ",
"                           oXXXXXXo.                            ",
"                          ..ooXXX+.....                         ",
"                        ......+++......X                        ",
"                       .............XXXXX                       ",
"                      X.......XXXXXXXXXXX                       ",
"                      XXXXXXXXXXXXXXXXX                         ",
"                       XXXXXXXXXXoooo                           ",
"                          ooooooooo++                           ",
"                          ++++$X#$X++                           ",
"                          ++++$X#$X++                           ",
"                           +++#####+                            ",
"                           XXXXX....                            ",
"                          XXXXXX....                            ",
"                          XXXXXX.....                           ",
"                         XXXXXXX.....                           ",
"                        XXXXXXXXX.....                          ",
"                        XXXXXXXXX.....                          ",
"                        XXXXXXXXX.....                          ",
"                        XXXXXXXXX.....                          ",
"                        XXXXXXXXX.....                          ",
"                        XXXXXXXXX.....                          ",
"                        XXXXXXXX......                          ",
"                        XXXXXXXX......                          ",
"                         XXXXXXX......                          ",
"                          XXXXX......                           ",
"                            XX   ..                             ",
"                            XX   ..                             ",
"                                                                ",
"                                                                ",
"                                                                ",
"                                                                ",
"                                                                ",
"                                                                ",
"                                                                ",
"                                                                ",
"                                                                ",
"                                                                ",
"                                                                ",
"                            X                                   ",
"                             XX                                 ",
"                             XX                                 ",
"                             XXX                                ",
"                             XXXX                               ",
"                             XXXX                               ",
"                            XXXXX                               ",
"                            XXXXXX                              ",
"                           oXXXXXXo.                            ",
"                          ..ooXXX+.....                         ",
"                        ......+++.....XX                        ",
"                       ...........XXXXXXX                       ",
"                      X....XXXXXXXXXXXXXX                       ",
"                      XXXXXXXXXXXXXXXXX                         ",
"                      XXXXXXXXXXXoooo                           ",
"                        XXoooo@.O@X++                           ",
"                          ++++$X#$X+                            ",
"                           +++#####+                            ",
"                           ++++...++                            ",
"                           XXXXX....                            ",
"                          XXXXXX....                            ",
"                          XXXXXX.....                           ",
"                         XXXXXXX.....                           ",
"                         XXXXXXXX....                           ",
"                         XXXXXXXX....                           ",
"                         XXXXXXXX....                           ",
"                         XXXXXXXX....                           ",
"                          XXXXXX.....                           ",
"                          XXXXXX.....                           ",
"                          XXXXXX....                            ",
"                          XXXXXX....                            ",
"                           XXXX.....                            ",
"                           XXXX.....                            ",
"                           ++++ oooo                            ",
"                            ++   oo                             ",
"                            XX   ..                             ",
"                            XX   ..                             ",
"                                                                ",
"                                                                ",
"                                                                ",
"                                                                ",
"                                                                ",
"                                                                ",
"                                                                ",
"                                                                ",
"                                                                ",
"                                                                ",
"                                                                ",
"                                                                ",
"                             X                                  ",
"                             XX                                 ",
"                             XXX                                ",
"                              XX                                ",
"                              XXX                               ",
"                              XXX                               ",
"                             XXXX                               ",
"                            XXXXXX                              ",
"                           oXXXXXXo..                           ",
"                          ..ooXXX+......X                       ",
"                        ......+++.....XXXX                      ",
"                      ............XXXXXXXX                      ",
"                     XX......XXXXXXXXXXXX                       ",
"                      XXX..XXXXXXXXXXXXX                        ",
"                       XXXXXXXXXXoooo                           ",
"                          oooo@.O@X++                           ",
"                          ++++$X#$X++                           ",
"                           +++#####+                            ",
"                           ++++...++                            ",
"                            XXXX...                             ",
"                           XXXXX....                            ",
"                          XXXXXX....                            ",
"                          XXXXXX.....                           ",
"                         XXXXXXXX....                           ",
"                         XXXXXXXX....                           ",
"                         XXXXXXXX....                           ",
"                         XXXXXXXX....                           ",
"                         XXXXXXX.....                           ",
"                          XXXXXX.....                           ",
"                          XXXXXX....                            ",
"                          XXXXXX....                            ",
"                           XXXX.....                            ",
"                           XXXX.....                            ",
"                            ++   oo                             ",
"                            XX   ..                             ",
"                            XX   ..                             ",
"                                                                ",
"                                                                ",
"                                                                ",
"                                                                ",
"                                                                ",
"                                                                ",
"                                                                ",
"                                                                "
};
