/* XPM */
static char *_ea2ac149aa84eeedbb0bb7debb52f22N19X8d0zB8zWbSGF[] = {
/* columns rows colors chars-per-pixel */
"60 60 135 2 ",
"   c None",
".  c #030303",
"X  c #060708",
"o  c #070809",
"O  c #0A0B0D",
"+  c #0D0E11",
"@  c #0F1114",
"#  c #111316",
"$  c #14161A",
"%  c #16191D",
"&  c #191B1D",
"*  c #171B20",
"=  c #1A1E22",
"-  c #1D2125",
";  c #1E222A",
":  c #212326",
">  c #22252A",
",  c #26292D",
"<  c #292B2D",
"1  c #252A31",
"2  c #2A2E33",
"3  c #2D3135",
"4  c #2E3339",
"5  c #323335",
"6  c #32363C",
"7  c #34383E",
"8  c #3B3B3D",
"9  c #363A41",
"0  c #393E43",
"q  c #3D4146",
"w  c #3E4349",
"e  c #434445",
"r  c #42464B",
"t  c #45494E",
"y  c #4B4C4C",
"u  c #474B50",
"i  c #494D52",
"p  c #4E5156",
"a  c #515355",
"s  c #535659",
"d  c #525459",
"f  c #54565A",
"g  c #55575A",
"h  c #55575B",
"j  c #54575C",
"k  c #535559",
"l  c #56595C",
"z  c #56595D",
"x  c #575A5D",
"c  c #56595C",
"v  c #585859",
"b  c #595A5B",
"n  c #5A5A5B",
"m  c #585A5D",
"M  c #585A5E",
"N  c #595B5E",
"B  c #595B5F",
"V  c #5A5C5E",
"C  c #5A5C5F",
"Z  c #5C5D5F",
"A  c #5A5B5E",
"S  c #5B5D60",
"D  c #5D5E61",
"F  c #5D5F62",
"G  c #5D5F63",
"H  c #5C5E61",
"J  c #5F6061",
"K  c #5E6062",
"L  c #5E6064",
"P  c #5F6063",
"I  c #606162",
"U  c #606164",
"Y  c #606264",
"T  c #616265",
"R  c #626366",
"E  c #636464",
"W  c #626466",
"Q  c #636466",
"!  c #646464",
"~  c #666667",
"^  c #626365",
"/  c #656668",
"(  c #656669",
")  c #666769",
"_  c #656668",
"`  c #676869",
"'  c #66686A",
"]  c #67686A",
"[  c #67686A",
"{  c #68696A",
"}  c #69696B",
"|  c gray42",
" . c #696A6C",
".. c #6A6B6C",
"X. c #6B6C6D",
"o. c #6C6C6D",
"O. c #6D6D6D",
"+. c #6C6D6E",
"@. c #6D6D6E",
"#. c #6D6E6E",
"$. c #6D6E6F",
"%. c #6E6E6F",
"&. c #6E6F6F",
"*. c #6B6C6D",
"=. c #6F6F70",
"-. c #6F6F70",
";. c #6E7071",
":. c #6F7071",
">. c #6F7071",
",. c gray44",
"<. c #707071",
"1. c #707171",
"2. c #717171",
"3. c #707172",
"4. c #727272",
"5. c #727273",
"6. c gray45",
"7. c #737374",
"8. c #767676",
"9. c #777777",
"0. c #727373",
"q. c #777778",
"w. c #767778",
"e. c #777879",
"r. c #77797A",
"t. c #787979",
"y. c #797979",
"u. c gray48",
"i. c #7B7B7C",
"p. c #7F7F80",
"a. c #7F8080",
"s. c #808182",
"d. c #818282",
"f. c #838383",
"g. c #8B8B8B",
/* pixels */
"        # @ $ % & @   O O O + O O @ @ @ # O       o . O # O . . . o + + .         X O + + @ @ @ @ O + @ @ X             ",
"    4 r p w w y t q # - ; , 1 1 4 4 4 9 6 6 -     $ , 7 0 & : , = & 0 6 > O     + = 1 4 6 9 9 9 9 0 9 6 6 = =           ",
"  4 j a.d.+.d i t q = ; 4 4 9 9 9 q w u t i p < % 2 i g i : r i r , t r 9 1 O O * 4 9 q u i p i i i u t 0 > % % @ $     ",
"# r q.q.6.3._ i t w - 3 9 9 w i p p S G I | @.v - i @.3.! 2 l -.M e d i r 9 & O 4 q u i p g a a g Z g u 9 : $ 2 6 , %   ",
"# p 7.3.:.3.` i t q = 4 w t t p S _ W ` -.@.) J < a ,.3.=.5 t n p J P p i q 1 $ 0 i p J +.3.,.=.o.| | i 0 = e 3.:.u 1   ",
"# r @.o.T M d i t 3 - r i i p D L l P r.t.r.@.Z : r d M ! g y n S p u i i q 1 % t S @.3.@.3.3.=.3.3.=.Z r $ , ) ` a 1   ",
"+ 4 i M d i i t 5 # 6 t i p l A j d l P ` 3.3.O.: 5 T | :.@.@.D p u u i i 9 ; * u ' 7.} ) ,.3.3.7.8.i.! < # % a l q % . ",
"X - 9 t i i t < % $ 7 r i t t t p P :.7.i.f.8.I & & i &.3.T S M L -.7.P t 2 = = u -.3.=.=.3.@.8.d.f.~ < > 4 : : 0 - % X ",
"+ $ - 0 e 7 : % * $ 2 t i J ..| ..A &.i.f.i.6.e % = = a -.| -.8.:._ S w > $ ; = e i.3.| 6.i.f.f.=.8 $ , 9 0 4 = $ = 1 O ",
"O # = 6 6 8 0 0 6 : $ r i A a.6.6.J ..@.6.6.P # @ # O & a ) 7.8.;.j 7 - * $ + = > v d.f.f.p.I 3 : = > r u u u w 6 4 4 + ",
". & : 3 a | o.=.@.Z 5 : w p a.f.9.W Z ..d.9.3 $ , 3 1 = & y :.8.j 4 = > 4 4 - + - - 5 r 8 : > > & = e a i i i i u 9 4 O ",
". # > 3 3 a i.g.g.i.O.e & 0 T g.g.a.y.f.y.3 - 2 9 w w 6 : , > < 4 1 4 9 9 4 4 * $ % & , 3 6 6 9 : 5 M D D M l i 0 9 6 O ",
"o > 9 u i 9 y 6.8.@.P l : % , M d.g.i.a ; ; 4 7 q i t 3 w i y i u 9 9 9 7 9 4 = = 4 9 w w w 0 4 < ` =.6.,.=.M w 0 t q O ",
"+ 4 d q.7.S r y A a p p 0 $ = = < 5 < , 4 q t 9 r i 8 8 I | J i q 9 4 9 9 6 - < w u i t i u 0 , a 8.3.6.6.I t t i i t + ",
"+ r 7.} T S t 0 i i i i t & = % % - 7 9 w i i t i i 3 J 9.7.P i w w 9 r 9 2 > t u i t t y t 6 < 6.6.6.6.! i i D P i w O ",
"O w f i a t 6 q i i i i t : , 6 > > 9 i u i i i i i 5 ..a.:.j i i r i u 9 , 4 u u u t u t r 3 e 8.6.6.D t i Z T P u w + ",
". - 1 7 6 , 0 i i i i i w , ; 4 > , r i i p S S S G y 2.8.=.a i i i d d 0 > 6 y i u r 0 0 0 4 a 8.@.@.M d u a t i t 0 o ",
"o $ , , 3 w i i i i u u 9 - > 9 > > t i d ! -.3.6.3.J O.6.| i i p g ) +.i , 3 y r w t p S } M 6 t.7.} l l | 3.D ) p : . ",
"+ $ 9 t t i i i u i u 0 4 $ 1 6 3 = w p M | ~ =.3.3.! 6.8.) a l Z | 6.,.d 5 6 M j R 7.p.p.p.3.e 8 | T ! } @.3.) g 5 $   ",
"+ % & 9 q t t t w q 9 3 - ; 9 9 7 > q i A @.| O.6.3.| ~ d.:.| @.,.,.6.3.T q 6 O.-.w.7.;.6.6.3.| i 3 8 v Z | 3.-.a %     ",
"  - $ % , 1 4 4 4 1 ; ; 6 t r q 9 4 7 i J 3.6.6.6.q.8.a d.8.3.6.3.3.,.6.O.y 3 @.-.-.3.6.3.6.3.6.@.Z r 5 * > 0 5 # #     ",
"    ; = % @ @ % * 1 0 t i i i t 9 6 6 p } q.8.t.f.d.a * y d.p.d.d.i.i.8.! 5 % ~ -.} 3.-.D | ,.6.@.3.| y * * # $ % % #   ",
"        ; ; = 6 t i y i i i u q 7 9 6 t @.i.i.6.a < * , - 8 e y y y 8 < & $ % v ;.-.3.=.| @.3.6.6.6.@.5 $ = 1 1 > > ; O ",
"          % 3 i p p p p p p u 9 9 r r 9 7 5 3 & : 3 9 4 1 1 , : : < 8 a 3 = = 8 i.q.7.6.3.} 6.8.i.6.e & 1 9 9 4 1 2 4 O ",
"        * : 0 f M D J D P l t q t i i t 0 3 % > 7 q r q 0 q q w p } i.i.i.y & - v g.f.a.i.i.f.g.=.5 = 4 9 9 9 4 4 4 4 O ",
"        6 3 i T ! | 7.3.-.l u i p D p u i 5 - 9 r i u r i i i S r.t.7.@.3.t.t 2 > 5 Z 3.9.8.v 5 % $ 4 9 0 w 9 9 6 9 9 O ",
"    = 4 r 6 v 8.a.f.i.6.@.p i l | _ p l T < q t i i u i i i S w.7.@.W i +.7.3.< 7 6 1 , , < 1 4 : , 9 e u i 9 9 w r 0 O ",
"  # 1 0 t q 8 t.f.f.8.6.` p P :.7.:.:.d.8.< i i i i i u u p ' ;.:.+.` a +.3.i.5 q r r w q 9 9 6 = 8 r t u u 9 w i u e O ",
". = 6 u i d 8 n 6.6.6.3.W W ,.6.7.a.i.d.} , i i u r 0 9 9 w p S +.3.| ` ! T 8.6 q i i i i u w 4 - u w i i u q u u r w + ",
"o > r i v T n 8 ! ,.6.3.` ,.6.,.7.9.f.i.5 - r 0 9 9 4 0 t i S ( 3.+.i r p J 8.5 q p J ` S p i 3 2 u u i u q w u i r 9 + ",
"+ 4 t i g | ,.y y 8.6.8.3.3.O.6.a.g.&.< $ $ 2 4 9 0 9 q i } -.;.3.) w 9 p @.8.3 w d :.3.:.S t , 3 t w i u u i d p t 7 O ",
"@ 9 t r t Z ,.| 8 ! a.,.3.3.6.g.i.a = & $ + 4 4 9 w u u p ) ` L K d t t i ' I 2 r l 3.3.+.p w , 4 u u i u d ' L l 0 6 O ",
"$ 9 u w i W 3.3.! 8 O.t.f.f.f.J 2 $ < t 9 & > t y i i i i d A J J S p r t J q 7 t ~ 3.} S r 9 2 2 r u u i } =.I M t 6 O ",
"O 9 u u i S +.:.@.J 8 y a e : : 2 , 8 ` l - % r i i i i p ` 9.r.i.9.x p p a > w l @.J p i t q 4 = w i i l 7.3.` ) a =   ",
"O 2 w w t J ,.3.@...| v y 8 & 6 7 , 2 Z r - : 5 i i i i p W 6.&.3.i.' x I 3 5 p ..! d s l d u 4 # = 8 r M =.8.6.a : #   ",
"O = 9 i p W 6.:.O.,.@.3.3.y , 0 7 6 - : : 7 t < q i i i i P &.n I 3.&.p > % 7 ! 3.&.:.) Z I r = * = % : : , < : : 1 % . ",
"+ $ 2 r i S r.7.3.3.T i.@.q e | D i 0 7 q i i 2 * 2 0 q e a A r e q < & & ; % y 8.i.i.6.! q & % - = 0 u r 0 9 9 6 6 > . ",
"  = * 9 u d r.p.@.} ` f.T 5 a @.3.=.| T M i r > * - - 2 < 3 < > < 8 3 - ; ; : 5 8 | 3.a 8 0 7 & * e p i i t t w 9 6 1 X ",
"  > * ; 0 i ) f.@.3.t.t.p < I ! =.6.7.@.M p t , $ 3 t i p t i i i i t 7 - & y &.a 8 q r u u 9 , e | } P d r r u r 9 3 X ",
"    ; $ 1 w p i.@.8.d.v 5 e 3.3.3.8.8.T g i i < e l p i i i i i i p s ` 8 : ..6.| v i i i r 6 : @.7.3.' G d u t r 0 2 X ",
"    ; - # 6 i _ i.i.n < 8 6.t.i.p.q.` l d u i 5 ! 3.) l i i i i i M @.,.y y 6.8.3.T t 0 r r 6 < 6.6.6.| Z p p i r 0 4 X ",
"    - ; 3 - 4 t v 8 $ @ v i.a.6._ D S j p i t 2 ~ 3.3.3.` p i i a l @.! 8 ! i.f.p.3.M w 9 9 5 6 t.6.6.| M p i u r u 2 . ",
"    * 6 w e < > , - # + 3 @.&.) P S l a i i t 5 O.=.3.3.;.l i p d g O.! 8 6.t.t.d.6.o.g r 9 6 2 8.,.O.=.! d p u u r 2 X ",
"  % 2 q t i i i i w 6 & o e | I l d p i u 0 > e 8.=.` P T p i i i d ~ a y ,.| y.8.8.6.` i 0 6 : ! ,.=.2.T g i i u w 1 . ",
"o - 9 u i p p d d i w 6 - # 5 r r r 0 5 : % & 8 y.,.@.! T p i i i d +.e y @.| &.6.t.7.+.f u 0 1 e y.6.6._ f p i u 9 % . ",
"O 1 r i p ` :.i.7.) p 0 6 & O $ % # o o o + % < 8.~ T I P p i i d ' 8.6 r W @.3.3.7.3.} d i w 6 : =.8.2.) l p i r 4 @   ",
"+ 9 u p ` 3.8.9.3...M t 9 4 % = * $ 1 4 > * # $ 8.@.o.@.@.p i i d W 6.5 6 y d g I T G j i r 0 9 > 0 i.7.} l p i 9 - $   ",
"@ q u p W P J S l p d p w 7 , # # 4 0 9 6 4 q < Z i.6.3.@.p i p l } -.8 & 0 t i i u u r w 9 9 6 : $ g 7.o.l i w 4 $ -   ",
"O q i i p i t w q w u i u 9 4 + ; q q q 1 4 S p 8 f.y.` g i i i i y 8 $ + & : : 6 7 7 7 7 6 9 4 % - & e I a u 9 - *     ",
"X 7 i i w 9 7 7 9 9 9 i i 9 4 * 1 w i i 9 4 r S < y v i r r 0 5 : & 5 D O.2.J : o # = 2 4 6 4 : @ , 2 > < 6 6 , #       ",
"X 1 i t q 9 9 6 9 w u i u 9 4 * 1 p A +.S 0 q S i & $ % $ # + O e } @.q.i.! v y , # $ @ + @ # + q d a r 4 ; - = $ $     ",
"O % r i i u i i p S S p u 9 4 = 3 p ` d.7.t u J S q $ = - - = < } W P P ' d p t 9 % = > * % % 8 i.3._ r 4 e w 9 2 # *   ",
"  $ 1 u i i p L p.q.-.p w 9 4 * > d W +.-.i A } S 9 $ ; , ; - < d u u u r i i t 9 > % $ 3 5 % v p.-.i 4 i S G d 9 = #   ",
"  = % 9 u i i P p.7.L i 9 9 1 # & A _ P :.) :.q.u , # = % # # % > e p u t w w r 9 1 + 6 J t > ! r.-.i e S G P ) u 2 @   ",
"    $ , q u i j ;.G i 0 9 4 * # % a 7.} :.r.r.p 3 # # : 0 2 q r 5 $ p i q 9 4 9 6 - & M i q : I i.7.f r M D f ' l 4 %   ",
"      $ 4 q w p d i w 9 9 = # - - 3 r.f.f.;.i 4 & : n d.d.f q 0 4 = < i r 9 1 1 2 & < i e 7 > y f.=.S i i U G } u 1 =   ",
"      $ % 2 4 9 t 0 9 1 % @ * # % = 5 s i 9 1 $ & -.8.t.t.T 0 6 6 1 $ 0 r 0 9 4 1 # 4 r 9 6 * : 7.o.D M r d ! 3.u ; =   ",
"        @ * 1 1 4 2 * @ * - - e # - = % % % @ $ 5 } S a i t t t w 1 + = 4 6 4 1 = + , 0 4 1 @ @ f ` D a g ! g ! r 1     ",
"          + $ $ # + $ =     & 7 $           = = > e w r r r w 0 4 - O + + $ % @ +     # @ + @ $ $ : 5 2 e n 8 3 > #     ",
"            . . . . X       . . .             . o O O O O O O o X . .                 . . .   X . . . . . . . . .       "
};
