/* XPM */
static char *result[] = {
/* columns rows colors chars-per-pixel */
"32 384 10 1 ",
"  c #292333",
". c #653830",
"X c #3B324A",
"o c #925145",
"O c #D47564",
"+ c #759167",
"@ c #9E907F",
"# c #AAD395",
"$ c #E6D1B8",
"% c None",
/* pixels */
"%%%%%%%%%%%%%%%%%%%%%%%%%%%%%%%%",
"%%%%%%%%%%%%%%%%%%%%%%%%%%%%%%%%",
"%%%%%%%%%%%%%%%%%%%%%%%%%%%%%%%%",
"%%%%%%%%%X%%%%%%%%%%%%%%%%%%%%%%",
"%%%%%%%%%XX%%%%%%%%%%%%%%%%%%%%%",
"%%%%%%%%%XXX%%%%%%%%%%%%%%%%%%%%",
"%%%%%%%%%%XXX%%%%%%%%%%%%%%%%%%%",
"%%%%%%%%%%XXX%%%%%%%%%%%%%%%%%%%",
"%%%%%%%%%%%XXX%%%%%%%%%%%%%%%%%%",
"%%%%%%%%%%%XXXX%%%%%%%%%%%%%%%%%",
"%%%%%%%%%%%% XXXX%%%%%%%%%%%%%%%",
"%%%%%%%%%%%% XXXXOX%%%%%%%%%%%%%",
"%%%%%%%%%%%%  XOOXXXX%%XX%%%%%%%",
"%%%%%%%%%%%%oooXXXXXXXXXX%%%%%%%",
"%%%%%%%%%%%   XXXXXXXXXX%%%%%%%%",
"%%%%%%%%%%%  XXXXXXXXXX %%%%%%%%",
"%%%%%%%%%%  XXXXXXXXXo %%%%%%%%%",
"%%%%%%%XXXXXXXXXXXXooo%%%%%%%%%%",
"%%%%%%%%XXXXXXXXoo@@OO%%%%%%%%%%",
"%%%%%%%%%   oooo+ $#XO%%%%%%%%%%",
"%%%%%%%%%%%%OOOO#X$#XO%%%%%%%%%%",
"%%%%%%%%%%%%OOO$$$$$$O%%%%%%%%%%",
"%%%%%%%%%%%%%OO$$$$$o%%%%%%%%%%%",
"%%%%%%%%%%%%%%Oo$$oo%%%%%%%%%%%%",
"%%%%%%%%%%%%%XXXXXX%%%%%%%%%%%%%",
"%%%%%%%%%%%%XXXXXXXX%%%%%%%%%%%%",
"%%%%%%%%%%%XXXXXXXXXX%%%%%%%%%%%",
"%%%%%%%%%%%XXXXXXXXXX%%%%%%%%%%%",
"%%%%%%%%%%$XXXXXXXXXX%%%%%%%%%%%",
"%%%%%%%%%%$$X%XXXXXXX%%%%%%%%%%%",
"%%%%%%%%%%$$%%XXXXXXX%%%%%%%%%%%",
"%%%%%%%%%%$$%%$$$XXXX%%%%%%%%%%%",
"%%%%%%%%%%$$%%$$$$$$@%%%%%%%%%%%",
"%%%%%%%%%%$$$XXX$$$$@%%%%%%%%%%%",
"%%%%%%%%%%%$XXXXXOo  %%%%%%%%%%%",
"%%%%%%%%%%%XXXXXXX    %%%%%%%%%%",
"%%%%%%%%%%%XXXXXXX    %%%%%%%%%%",
"%%%%%%%%%%%XXXXXXX    %%%%%%%%%%",
"%%%%%%%%%%%XXXXXX     %%%%%%%%%%",
"%%%%%%%%%%%XXXXXX     %%%%%%%%%%",
"%%%%%%%%%%%%XXXXX     %%%%%%%%%%",
"%%%%%%%%%%%%XXXXX%    %%%%%%%%%%",
"%%%%%%%%%%%%XXXX%%    %%%%%%%%%%",
"%%%%%%%%%%%%XXX%%%   %%%%%%%%%%%",
"%%%%%%%%%%%%XXX%%%   %%%%%%%%%%%",
"%%%%%%%%%%%%$$%%%%@@%%%%%%%%%%%%",
"%%%%%%%%%%%%XX%%%%  %%%%%%%%%%%%",
"%%%%%%%%%%%%XX%%%%  %%%%%%%%%%%%",
"%%%%%%%%%%%%%%%%%%%%%%%%%%%%%%%%",
"%%%%%%%%%%%%%%%%%%%%%%%%%%%%%%%%",
"%%%%%%%%%%%%%%%%%%%%%%%%%%%%%%%%",
"%%%%%%%%%%%%%%%%%%%%%%%%%%%%%%%%",
"%%%%%%%%%%%%%%%%%%%%%%%%%%%%%%%%",
"%%%%%%%%%%%%%%%%%%%%%%%%%%%%%%%%",
"%%%%%%%%%%%%%%%%%%%%%%%%%%%%%%%%",
"%%%%%%%%%%%%%%%%%%%%%%%%%%%%%%%%",
"%%%%%%%%%%%%%%%%%%%%%%%%%%%%%%%%",
"%%%%%%%%%%%%%%%%%%%%%%%%%%%%%%%%",
"%%%%%%%%%%%%%%%%%%%%%%%%%%%%%%%%",
"%%%%%%%%%%%%%%%%%%%%%%%%%%%%%%%%",
"%%%%%%%%%%%%%%%%%%%%%%%%%%%%%%%%",
"%%%%%%%%%%%%%%%%%%%%%%%%%%%%%%%%",
"%%%%%%%%%%%%%%%%%%%%%%%%%%%%%%%%",
"%%%%%%%%%%%%%%%%%%%%%%%%%%%%%%%%",
"%%%%%%%%%%%%%%%%%%%%%%%%%%%%%%%%",
"%%%%%%%%%%%%%%%%%%%%%%%%%%%%%%%%",
"%%%%%%%%%%%%%%%%%%%%%%%%%%%%%%%%",
"%%%%%%%%%%%%%%%%%%%%%%%%%%%%%%%%",
"%%%%%%%%XXX%%%%%%%%%%%%%%%%%%%%%",
"%%%%%%%%XXXX%%%%%%%%%%%%%%%%%%%%",
"%%%%%%%%%XXXX%%%%%%%%%%%%%%%%%%%",
"%%%%%%%%%%XXXX%%%%%%%%%%%%%%%%%%",
"%%%%%%%%%%% XXX%%%%%%%%%%%%%%%%%",
"%%%%%%%%%%%% XXXX%%%%%%%%%%%%%%%",
"%%%%%%%%%%%% XXXXOO%%%%%%%%%%%%%",
"%%%%%%%%%%%%  XOOOXXXXXXX%%%%%%%",
"%%%%%%%%%%%%oooOXXXXXXXXXX%%%%%%",
"%%%%%%%%%%%   XXXXXXXXXXX%%%%%%%",
"%%%%%%%%%%%  XXXXXXXXXXX%%%%%%%%",
"%%%%%%%%%%  XXXXXXXXXX %%%%%%%%%",
"%%%%%%%%XXXXXXXXXXXooo%%%%%%%%%%",
"%%%%%%%XXXXXXXXXoo@@OO%%%%%%%%%%",
"%%%%%%%%XX  oooo+X$#XO%%%%%%%%%%",
"%%%%%%%%%%%%OOOO#X$#XO%%%%%%%%%%",
"%%%%%%%%%%%%OOO$$$$$$O%%%%%%%%%%",
"%%%%%%%%%%%%OOO$$$$$oO%%%%%%%%%%",
"%%%%%%%%%%%%%OOo$$ooo%%%%%%%%%%%",
"%%%%%%%%%%%%%XXXXXX%%%%%%%%%%%%%",
"%%%%%%%%%%%%XXXXXXXX%%%%%%%%%%%%",
"%%%%%%%%%%%%XXXXXXXXX%%%%%%%%%%%",
"%%%%%%%%%%%XXXXXXXXXX%%%%%%%%%%%",
"%%%%%%%%%%%XXXXXXXXXX%%%%%%%%%%%",
"%%%%%%%%%%%$XXXXXXXXX%%%%%%%%%%%",
"%%%%%%%%%%%$$%XXXXXXX%%%%%%%%%%%",
"%%%%%%%%%%%$$%XXXXXXX%%%%%%%%%%%",
"%%%%%%%%%%%$$%$$$XXXX%%%%%%%%%%%",
"%%%%%%%%%%%$$%$$$$$$@%%%%%%%%%%%",
"%%%%%%%%%%%$$XXX$$$$@%%%%%%%%%%%",
"%%%%%%%%%%%$XXXXXOo  %%%%%%%%%%%",
"%%%%%%%%%%%XXXXXXX    %%%%%%%%%%",
"%%%%%%%%%%%XXXXXXX    %%%%%%%%%%",
"%%%%%%%%%%%XXXXXXX    %%%%%%%%%%",
"%%%%%%%%%%%XXXXXX     %%%%%%%%%%",
"%%%%%%%%%%%XXXXXX     %%%%%%%%%%",
"%%%%%%%%%%%%XXXXX     %%%%%%%%%%",
"%%%%%%%%%%%%XXXX%%    %%%%%%%%%%",
"%%%%%%%%%%%%XXXX%%   %%%%%%%%%%%",
"%%%%%%%%%%%%XXX%%%   %%%%%%%%%%%",
"%%%%%%%%%%%%XXX%%%   %%%%%%%%%%%",
"%%%%%%%%%%%%$$%%%%@@%%%%%%%%%%%%",
"%%%%%%%%%%%%XX%%%%  %%%%%%%%%%%%",
"%%%%%%%%%%%%XX%%%%  %%%%%%%%%%%%",
"%%%%%%%%%%%%%%%%%%%%%%%%%%%%%%%%",
"%%%%%%%%%%%%%%%%%%%%%%%%%%%%%%%%",
"%%%%%%%%%%%%%%%%%%%%%%%%%%%%%%%%",
"%%%%%%%%%%%%%%%%%%%%%%%%%%%%%%%%",
"%%%%%%%%%%%%%%%%%%%%%%%%%%%%%%%%",
"%%%%%%%%%%%%%%%%%%%%%%%%%%%%%%%%",
"%%%%%%%%%%%%%%%%%%%%%%%%%%%%%%%%",
"%%%%%%%%%%%%%%%%%%%%%%%%%%%%%%%%",
"%%%%%%%%%%%%%%%%%%%%%%%%%%%%%%%%",
"%%%%%%%%%%%%%%%%%%%%%%%%%%%%%%%%",
"%%%%%%%%%%%%%%%%%%%%%%%%%%%%%%%%",
"%%%%%%%%%%%%%%%%%%%%%%%%%%%%%%%%",
"%%%%%%%%%%%%%%%%%%%%%%%%%%%%%%%%",
"%%%%%%%%%%%%%%%%%%%%%%%%%%%%%%%%",
"%%%%%%%%%%%%%%%%%%%%%%%%%%%%%%%%",
"%%%%%%%%%%%%%%%%%%%%%%%%%%%%%%%%",
"%%%%%%%%%%%%%%%%%%%%%%%%%%%%%%%%",
"%%%%%%%%%%%%%%%%%%%%%%%%%%%%%%%%",
"%%%%%%%%%%%%%%%%%%%%%%%%%%%%%%%%",
"%%%%%%%%%%%%%%%%%%%%%%%%%%%%%%%%",
"%%%%%%%%%%%%%%%%%%%%%%%%%%%%%%%%",
"%%%%%%%%XXXX%%%%%%%%%%%%%%%%%%%%",
"%%%%%%%%XXXXXX%%%%%%%%%%%%%%%%%%",
"%%%%%%%%%XXXXXX%%%%%%%%%%%%%%%%%",
"%%%%%%%%%%XXXXXX%%%%%%%%%%%%%%%%",
"%%%%%%%%%%% XXXXX%%%%%%%%%%%%%%%",
"%%%%%%%%%%%% XXXXXO%%%%%%%%%%%%%",
"%%%%%%%%%%%%  XXOOXXXXX%%%%%%%%%",
"%%%%%%%%%%%%oooOXXXXXXXXXX%%%%%%",
"%%%%%%%%%%%   XXXXXXXXXXXX%%%%%%",
"%%%%%%%%%%%  XXXXXXXXXXX %%%%%%%",
"%%%%%%%%%%  XXXXXXXXXX %%%%%%%%%",
"%%%%%%%%%XXXXXXXXXXooo%%%%%%%%%%",
"%%%%%%%%XXXXXXXXoo@@OO%%%%%%%%%%",
"%%%%%%%XXX  oooo+X$#XO%%%%%%%%%%",
"%%%%%%%%%%%%OOOO#X$#XO%%%%%%%%%%",
"%%%%%%%%%%%%OOO$$$$$$O%%%%%%%%%%",
"%%%%%%%%%%%%OOO$$$$$oO%%%%%%%%%%",
"%%%%%%%%%%%%%OOo$$ooo%%%%%%%%%%%",
"%%%%%%%%%%%%%XXXXXX%%%%%%%%%%%%%",
"%%%%%%%%%%%%XXXXXXXXX%%%%%%%%%%%",
"%%%%%%%%%%%%XXXXXXXXX%%%%%%%%%%%",
"%%%%%%%%%%%XXXXXXXXXX%%%%%%%%%%%",
"%%%%%%%%%%%XXXXXXXXXX%%%%%%%%%%%",
"%%%%%%%%%%%$XXXXXXXXX%%%%%%%%%%%",
"%%%%%%%%%%$$$%XXXXXXX%%%%%%%%%%%",
"%%%%%%%%%%$$$%$$$XXXX%%%%%%%%%%%",
"%%%%%%%%%%$$$%$$$$$$@%%%%%%%%%%%",
"%%%%%%%%%%%$$XXX$$$$@%%%%%%%%%%%",
"%%%%%%%%%%%$XXXXXOo  %%%%%%%%%%%",
"%%%%%%%%%%%XXXXXXX   %%%%%%%%%%%",
"%%%%%%%%%%%XXXXXXX    %%%%%%%%%%",
"%%%%%%%%%%%XXXXXXX    %%%%%%%%%%",
"%%%%%%%%%%%XXXXXX     %%%%%%%%%%",
"%%%%%%%%%%%XXXXXX     %%%%%%%%%%",
"%%%%%%%%%%%%XXXXX     %%%%%%%%%%",
"%%%%%%%%%%%%XXXX%     %%%%%%%%%%",
"%%%%%%%%%%%%XXXX%%   %%%%%%%%%%%",
"%%%%%%%%%%%%XXX%%%   %%%%%%%%%%%",
"%%%%%%%%%%%%XXX%%%   %%%%%%%%%%%",
"%%%%%%%%%%%%XXX%%%   %%%%%%%%%%%",
"%%%%%%%%%%%%$$%%%%@@%%%%%%%%%%%%",
"%%%%%%%%%%%%XX%%%%  %%%%%%%%%%%%",
"%%%%%%%%%%%%XX%%%%  %%%%%%%%%%%%",
"%%%%%%%%%%%%%%%%%%%%%%%%%%%%%%%%",
"%%%%%%%%%%%%%%%%%%%%%%%%%%%%%%%%",
"%%%%%%%%%%%%%%%%%%%%%%%%%%%%%%%%",
"%%%%%%%%%%%%%%%%%%%%%%%%%%%%%%%%",
"%%%%%%%%%%%%%%%%%%%%%%%%%%%%%%%%",
"%%%%%%%%%%%%%%%%%%%%%%%%%%%%%%%%",
"%%%%%%%%%%%%%%%%%%%%%%%%%%%%%%%%",
"%%%%%%%%%%%%%%%%%%%%%%%%%%%%%%%%",
"%%%%%%%%%%%%%%%%%%%%%%%%%%%%%%%%",
"%%%%%%%%%%%%%%%%%%%%%%%%%%%%%%%%",
"%%%%%%%%%%%%%%%%%%%%%%%%%%%%%%%%",
"%%%%%%%%%%%%%%%%%%%%%%%%%%%%%%%%",
"%%%%%%%%%%%%%%%%%%%%%%%%%%%%%%%%",
"%%%%%%%%%%%%%%%%%%%%%%%%%%%%%%%%",
"%%%%%%%%%%%%%%%%%%%%%%%%%%%%%%%%",
"%%%%%%%%%%%%%%%%%%%%%%%%%%%%%%%%",
"%%%%%%%%%%%%%%%%%%%%%%%%%%%%%%%%",
"%%%%%%%%%%%%%%%%%%%%%%%%%%%%%%%%",
"%%%%%%%%%%%%%%%%%%%%%%%%%%%%%%%%",
"%%%%%%%%%%XX%%%%%%%%%%%%%%%%%%%%",
"%%%%%%%%%%XXX%%%%%%%%%%%%%%%%%%%",
"%%%%%%%%%%XXX%%%%%%%%%%%%%%%%%%%",
"%%%%%%%%%%%XXX%%%%%%%%%%%%%%%%%%",
"%%%%%%%%%%%XXX%%%%%%%%%%%%%%%%%%",
"%%%%%%%%%%%%XXX%%%%%%%%%%%%%%%%%",
"%%%%%%%%%%%% XXXX%%%%%%%%%%%%%%%",
"%%%%%%%%%%%% XXXXXO%%%%%%%%%%%%%",
"%%%%%%%%%%%%  XXOOXXX%%%%%%%%%%%",
"%%%%%%%%%%%%oooOXXXXXXXXX%%%%%%%",
"%%%%%%%%%%%   XXXXXXXXXX%%%%%%%%",
"%%%%%%%%%%%  XXXXXXXXXX %%%%%%%%",
"%%%%%%%%%%  XXXXXXXXXX %%%%%%%%%",
"%%%%%%%%%XXXXXXXXXXooo%%%%%%%%%%",
"%%%%%%%%XXXXXXXXoo@@OO%%%%%%%%%%",
"%%%%%%%%%   oooo+X$#XO%%%%%%%%%%",
"%%%%%%%%%%%%OOOO#X$#XO%%%%%%%%%%",
"%%%%%%%%%%%%OOO$$$$$$O%%%%%%%%%%",
"%%%%%%%%%%%%%OO$$$$$o%%%%%%%%%%%",
"%%%%%%%%%%%%%%Oo$$oo%%%%%%%%%%%%",
"%%%%%%%%%%%%%XXXXXXX%%%%%%%%%%%%",
"%%%%%%%%%%%%XXXXXXXXX%%%%%%%%%%%",
"%%%%%%%%%%%XXXXXXXXXX%%%%%%%%%%%",
"%%%%%%%%%%%XXXXXXXXXX%%%%%%%%%%%",
"%%%%%%%%%%$$XXXXXXXXX%%%%%%%%%%%",
"%%%%%%%%%%$$$XXXXXXXX%%%%%%%%%%%",
"%%%%%%%%%%$$%%XXXXXXX%%%%%%%%%%%",
"%%%%%%%%%%$$%%$$$XXXX%%%%%%%%%%%",
"%%%%%%%%%%$$$%$$$$$$@%%%%%%%%%%%",
"%%%%%%%%%%$$$XXX$$$$@%%%%%%%%%%%",
"%%%%%%%%%%%$XXXXXOo  %%%%%%%%%%%",
"%%%%%%%%%%%XXXXXXX    %%%%%%%%%%",
"%%%%%%%%%%%XXXXXXX    %%%%%%%%%%",
"%%%%%%%%%%%XXXXXX     %%%%%%%%%%",
"%%%%%%%%%%%XXXXXX     %%%%%%%%%%",
"%%%%%%%%%%%XXXXXX     %%%%%%%%%%",
"%%%%%%%%%%%%XXXX%     %%%%%%%%%%",
"%%%%%%%%%%%%XXXX%%    %%%%%%%%%%",
"%%%%%%%%%%%%XXXX%%   %%%%%%%%%%%",
"%%%%%%%%%%%%XXX%%%   %%%%%%%%%%%",
"%%%%%%%%%%%%XXX%%%   %%%%%%%%%%%",
"%%%%%%%%%%%%XXX%%%   %%%%%%%%%%%",
"%%%%%%%%%%%%$$%%%%@@%%%%%%%%%%%%",
"%%%%%%%%%%%%XX%%%%  %%%%%%%%%%%%",
"%%%%%%%%%%%%XX%%%%  %%%%%%%%%%%%",
"%%%%%%%%%%%%%%%%%%%%%%%%%%%%%%%%",
"%%%%%%%%%%%%%%%%%%%%%%%%%%%%%%%%",
"%%%%%%%%%%%%%%%%%%%%%%%%%%%%%%%%",
"%%%%%%%%%%%%%%%%%%%%%%%%%%%%%%%%",
"%%%%%%%%%%%%%%%%%%%%%%%%%%%%%%%%",
"%%%%%%%%%%%%%%%%%%%%%%%%%%%%%%%%",
"%%%%%%%%%%%%%%%%%%%%%%%%%%%%%%%%",
"%%%%%%%%%%%%%%%%%%%%%%%%%%%%%%%%",
"%%%%%%%%%%%%%%%%%%%%%%%%%%%%%%%%",
"%%%%%%%%%%%%%%%%%%%%%%%%%%%%%%%%",
"%%%%%%%%%%%%%%%%%%%%%%%%%%%%%%%%",
"%%%%%%%%%%%%%%%%%%%%%%%%%%%%%%%%",
"%%%%%%%%%%%%%%%%%%%%%%%%%%%%%%%%",
"%%%%%%%%%%%%%%%%%%%%%%%%%%%%%%%%",
"%%%%%%%%%%%%%%%%%%%%%%%%%%%%%%%%",
"%%%%%%%%%%%%%%%%%%%%%%%%%%%%%%%%",
"%%%%%%%%%%%%%%%%%%%%%%%%%%%%%%%%",
"%%%%%%%%%%%%%%%%%%%%%%%%%%%%%%%%",
"%%%%%%%%%%%%%%%%%%%%%%%%%%%%%%%%",
"%%%%%%%%%%%%%%%%%%%%%%%%%%%%%%%%",
"%%%%%%%%%%%%X%%%%%%%%%%%%%%%%%%%",
"%%%%%%%%%%%XXX%%%%%%%%%%%%%%%%%%",
"%%%%%%%%%%%XXX%%%%%%%%%%%%%%%%%%",
"%%%%%%%%%%%XXX%%%%%%%%%%%%%%%%%%",
"%%%%%%%%%%%XXXX%%%%%%%%%%%%%%%%%",
"%%%%%%%%%%% XXX%%%%%%%%%%%%%%%%%",
"%%%%%%%%%%% XXXX%%%%%%%%%%%%%%%%",
"%%%%%%%%%%%% XXXX%%%%%%XX%%%%%%%",
"%%%%%%%%%%%%  XXXXO%%XXXX%%%%%%%",
"%%%%%%%%%%%%  XXOOXXXXXX%%%%%%%%",
"%%%%%%%%%%%%oooOXXXXXXX %%%%%%%%",
"%%%%%%%XX%%  XXXXXXXXX %%%%%%%%%",
"%%%%%%%XXX  XXXXXXXXXo%%%%%%%%%%",
"%%%%%%%%XXXXXXXXXXXXoo%%%%%%%%%%",
"%%%%%%%%%XXXXXXXXX@@oO%%%%%%%%%%",
"%%%%%%%%%%  XXX.+ @#XO%%%%%%%%%%",
"%%%%%%%%%%%%ooo@#X$#XO%%%%%%%%%%",
"%%%%%%%%%%%%%OO$$$$$$O%%%%%%%%%%",
"%%%%%%%%%%%%%%O$$$$$o%%%%%%%%%%%",
"%%%%%%%%%%%%%XXXXXX%%%%%%%%%%%%%",
"%%%%%%%%%%%%XXXXXXXX%%%%%%%%%%%%",
"%%%%%%%%%%%XXXXXXXXXX%%%%%%%%%%%",
"%%%%%%%%%%%XXXXXXXXXX%%%%%%%%%%%",
"%%%%%%%%%%$XXXXXXXXXX%%%%%%%%%%%",
"%%%%%%%%%%$$XXXXXXXXX%%%%%%%%%%%",
"%%%%%%%%%%$$%%XXXXXXX%%%%%%%%%%%",
"%%%%%%%%%%$$%%XXXXXXX%%%%%%%%%%%",
"%%%%%%%%%%$$%%$$$XXXX%%%%%%%%%%%",
"%%%%%%%%%%$$%%$$$$$$@%%%%%%%%%%%",
"%%%%%%%%%%%$$XXX$$$$@%%%%%%%%%%%",
"%%%%%%%%%%%$XXXXXOo   %%%%%%%%%%",
"%%%%%%%%%%%XXXXXXX    %%%%%%%%%%",
"%%%%%%%%%%%XXXXXX     %%%%%%%%%%",
"%%%%%%%%%%%XXXXXX     %%%%%%%%%%",
"%%%%%%%%%%%XXXXXX     %%%%%%%%%%",
"%%%%%%%%%%%XXXXXX     %%%%%%%%%%",
"%%%%%%%%%%%%XXXX%%    %%%%%%%%%%",
"%%%%%%%%%%%%XXXX%%    %%%%%%%%%%",
"%%%%%%%%%%%%XXX%%%   %%%%%%%%%%%",
"%%%%%%%%%%%%XXX%%%   %%%%%%%%%%%",
"%%%%%%%%%%%%XXX%%%   %%%%%%%%%%%",
"%%%%%%%%%%%%$$%%%%@@%%%%%%%%%%%%",
"%%%%%%%%%%%%XX%%%%  %%%%%%%%%%%%",
"%%%%%%%%%%%%XX%%%%  %%%%%%%%%%%%",
"%%%%%%%%%%%%%%%%%%%%%%%%%%%%%%%%",
"%%%%%%%%%%%%%%%%%%%%%%%%%%%%%%%%",
"%%%%%%%%%%%%%%%%%%%%%%%%%%%%%%%%",
"%%%%%%%%%%%%%%%%%%%%%%%%%%%%%%%%",
"%%%%%%%%%%%%%%%%%%%%%%%%%%%%%%%%",
"%%%%%%%%%%%%%%%%%%%%%%%%%%%%%%%%",
"%%%%%%%%%%%%%%%%%%%%%%%%%%%%%%%%",
"%%%%%%%%%%%%%%%%%%%%%%%%%%%%%%%%",
"%%%%%%%%%%%%%%%%%%%%%%%%%%%%%%%%",
"%%%%%%%%%%%%%%%%%%%%%%%%%%%%%%%%",
"%%%%%%%%%%%%%%%%%%%%%%%%%%%%%%%%",
"%%%%%%%%%%%%%%%%%%%%%%%%%%%%%%%%",
"%%%%%%%%%%%%%%%%%%%%%%%%%%%%%%%%",
"%%%%%%%%%%%%%%%%%%%%%%%%%%%%%%%%",
"%%%%%%%%%%%%%%%%%%%%%%%%%%%%%%%%",
"%%%%%%%%%%%%%%%%%%%%%%%%%%%%%%%%",
"%%%%%%%%%%%%%%%%%%%%%%%%%%%%%%%%",
"%%%%%%%%%%%%%%%%%%%%%%%%%%%%%%%%",
"%%%%%%%%%%%%%%%%%%%%%%%%%%%%%%%%",
"%%%%%%%%%%X%%%%%%%%%%%%%%%%%%%%%",
"%%%%%%%%%XXX%%%%%%%%%%%%%%%%%%%%",
"%%%%%%%%%XXX%%%%%%%%%%%%%%%%%%%%",
"%%%%%%%%%XXXX%%%%%%%%%%%%%%%%%%%",
"%%%%%%%%%%XXX%%%%%%%%%%%%%%%%%%%",
"%%%%%%%%%%XXXX%%%%%%%%%%%%%%%%%%",
"%%%%%%%%%%% XXX%%%%%%%%%%%%%%%%%",
"%%%%%%%%%%% XXXX%%%%%%%%%%%%%%%%",
"%%%%%%%%%%%% XXXX%%%%%%%%%%%%%%%",
"%%%%%%%%%%%% XXXXO%%%XXXX%%%%%%%",
"%%%%%%%%%%%%  XOOXXXXXXXX%%%%%%%",
"%%%%%%%%%%% oooXXXXXXXXX%%%%%%%%",
"%%%%%%%%%%%   XXXXXXXXX %%%%%%%%",
"%%%%%%%XXX   XXXXXXXXX %%%%%%%%%",
"%%%%%%%XXXXXXXXXXXXXXo%%%%%%%%%%",
"%%%%%%%%XXXXXXXXXXX@oO%%%%%%%%%%",
"%%%%%%%%%%  XXXX+ @+XO%%%%%%%%%%",
"%%%%%%%%%%%%oooo+X$#XO%%%%%%%%%%",
"%%%%%%%%%%%%OOO$$$$$$O%%%%%%%%%%",
"%%%%%%%%%%%%%OO$$$$$o%%%%%%%%%%%",
"%%%%%%%%%%%%%%Oo$$oo%%%%%%%%%%%%",
"%%%%%%%%%%%%%XXXXXX%%%%%%%%%%%%%",
"%%%%%%%%%%%%XXXXXXXX%%%%%%%%%%%%",
"%%%%%%%%%%%XXXXXXXXXX%%%%%%%%%%%",
"%%%%%%%%%%$XXXXXXXXXX%%%%%%%%%%%",
"%%%%%%%%%%$XXXXXXXXXX%%%%%%%%%%%",
"%%%%%%%%%%$$X%XXXXXXX%%%%%%%%%%%",
"%%%%%%%%%%$$%%XXXXXXX%%%%%%%%%%%",
"%%%%%%%%%%$$%%$$$XXXX%%%%%%%%%%%",
"%%%%%%%%%%$$%%$$$$$$@%%%%%%%%%%%",
"%%%%%%%%%%$$$XXX$$$$@%%%%%%%%%%%",
"%%%%%%%%%%%$XXXXXOo   %%%%%%%%%%",
"%%%%%%%%%%%XXXXXXX    %%%%%%%%%%",
"%%%%%%%%%%%XXXXXXX    %%%%%%%%%%",
"%%%%%%%%%%%XXXXXX     %%%%%%%%%%",
"%%%%%%%%%%%XXXXXX     %%%%%%%%%%",
"%%%%%%%%%%%XXXXXX     %%%%%%%%%%",
"%%%%%%%%%%%%XXXXX     %%%%%%%%%%",
"%%%%%%%%%%%%XXXXX%    %%%%%%%%%%",
"%%%%%%%%%%%%XXXX%%    %%%%%%%%%%",
"%%%%%%%%%%%%XXX%%%   %%%%%%%%%%%",
"%%%%%%%%%%%%XXX%%%   %%%%%%%%%%%",
"%%%%%%%%%%%%$$%%%%@@%%%%%%%%%%%%",
"%%%%%%%%%%%%XX%%%%  %%%%%%%%%%%%",
"%%%%%%%%%%%%XX%%%%  %%%%%%%%%%%%",
"%%%%%%%%%%%%%%%%%%%%%%%%%%%%%%%%",
"%%%%%%%%%%%%%%%%%%%%%%%%%%%%%%%%",
"%%%%%%%%%%%%%%%%%%%%%%%%%%%%%%%%",
"%%%%%%%%%%%%%%%%%%%%%%%%%%%%%%%%",
"%%%%%%%%%%%%%%%%%%%%%%%%%%%%%%%%",
"%%%%%%%%%%%%%%%%%%%%%%%%%%%%%%%%",
"%%%%%%%%%%%%%%%%%%%%%%%%%%%%%%%%",
"%%%%%%%%%%%%%%%%%%%%%%%%%%%%%%%%",
"%%%%%%%%%%%%%%%%%%%%%%%%%%%%%%%%",
"%%%%%%%%%%%%%%%%%%%%%%%%%%%%%%%%",
"%%%%%%%%%%%%%%%%%%%%%%%%%%%%%%%%",
"%%%%%%%%%%%%%%%%%%%%%%%%%%%%%%%%",
"%%%%%%%%%%%%%%%%%%%%%%%%%%%%%%%%",
"%%%%%%%%%%%%%%%%%%%%%%%%%%%%%%%%",
"%%%%%%%%%%%%%%%%%%%%%%%%%%%%%%%%",
"%%%%%%%%%%%%%%%%%%%%%%%%%%%%%%%%"
};
